<svg width="25" height="25" viewBox="0 0 25 25" fill="none" xmlns="http://www.w3.org/2000/svg">
  <path d="M7.29199 9.37516V3.12516C7.29199 2.83002 7.39182 2.58263 7.59147 2.38298C7.79112 2.18332 8.03852 2.0835 8.33366 2.0835C8.6288 2.0835 8.87619 2.18332 9.07585 2.38298C9.2755 2.58263 9.37533 2.83002 9.37533 3.12516V9.37516H10.417V3.12516C10.417 2.83002 10.5168 2.58263 10.7165 2.38298C10.9161 2.18332 11.1635 2.0835 11.4587 2.0835C11.7538 2.0835 12.0012 2.18332 12.2008 2.38298C12.4005 2.58263 12.5003 2.83002 12.5003 3.12516V9.37516C12.5003 10.3474 12.2008 11.1981 11.6019 11.9272C11.0029 12.6564 10.2607 13.1425 9.37533 13.3856V21.8752C9.37533 22.1703 9.2755 22.4177 9.07585 22.6174C8.87619 22.817 8.6288 22.9168 8.33366 22.9168C8.03852 22.9168 7.79112 22.817 7.59147 22.6174C7.39182 22.4177 7.29199 22.1703 7.29199 21.8752V13.3856C6.40658 13.1425 5.66439 12.6564 5.06543 11.9272C4.46647 11.1981 4.16699 10.3474 4.16699 9.37516V3.12516C4.16699 2.83002 4.26682 2.58263 4.46647 2.38298C4.66612 2.18332 4.91352 2.0835 5.20866 2.0835C5.5038 2.0835 5.75119 2.18332 5.95085 2.38298C6.1505 2.58263 6.25033 2.83002 6.25033 3.12516V9.37516H7.29199ZM17.7087 14.5835H15.6253C15.3302 14.5835 15.0828 14.4837 14.8831 14.284C14.6835 14.0844 14.5837 13.837 14.5837 13.5418V7.29183C14.5837 6.07655 15.0307 4.90468 15.9248 3.7762C16.8189 2.64773 17.7434 2.0835 18.6982 2.0835C19.0107 2.0835 19.2712 2.20502 19.4795 2.44808C19.6878 2.69114 19.792 2.97759 19.792 3.30745V21.8752C19.792 22.1703 19.6922 22.4177 19.4925 22.6174C19.2929 22.817 19.0455 22.9168 18.7503 22.9168C18.4552 22.9168 18.2078 22.817 18.0081 22.6174C17.8085 22.4177 17.7087 22.1703 17.7087 21.8752V14.5835Z" fill="currentColor"/>
</svg>
