<svg width="25" height="25" viewBox="0 0 25 25" fill="none" xmlns="http://www.w3.org/2000/svg">
<path d="M12.5 23C11.0475 23 9.6825 22.7244 8.405 22.1731C7.1275 21.6219 6.01625 20.8737 5.07125 19.9287C4.12625 18.9837 3.37812 17.8725 2.82687 16.595C2.27562 15.3175 2 13.9525 2 12.5C2 11.0475 2.27562 9.6825 2.82687 8.405C3.37812 7.1275 4.12625 6.01625 5.07125 5.07125C6.01625 4.12625 7.1275 3.37812 8.405 2.82687C9.6825 2.27562 11.0475 2 12.5 2C13.9525 2 15.3175 2.27562 16.595 2.82687C17.8725 3.37812 18.9837 4.12625 19.9287 5.07125C20.8737 6.01625 21.6219 7.1275 22.1731 8.405C22.7244 9.6825 23 11.0475 23 12.5C23 13.9525 22.7244 15.3175 22.1731 16.595C21.6219 17.8725 20.8737 18.9837 19.9287 19.9287C18.9837 20.8737 17.8725 21.6219 16.595 22.1731C15.3175 22.7244 13.9525 23 12.5 23ZM12.4738 19.85C12.7188 19.85 12.9331 19.7581 13.1169 19.5744C13.3006 19.3906 13.3925 19.1762 13.3925 18.9312V18.5375C14.2675 18.38 15.02 18.0387 15.65 17.5137C16.28 16.9887 16.595 16.21 16.595 15.1775C16.595 14.4425 16.385 13.7688 15.965 13.1562C15.545 12.5437 14.705 12.01 13.445 11.555C12.395 11.205 11.6687 10.8987 11.2662 10.6362C10.8637 10.3737 10.6625 10.015 10.6625 9.56C10.6625 9.105 10.8244 8.74625 11.1481 8.48375C11.4719 8.22125 11.94 8.09 12.5525 8.09C12.9025 8.09 13.2087 8.15125 13.4712 8.27375C13.7337 8.39625 13.9525 8.5625 14.1275 8.7725C14.3025 8.9825 14.4994 9.12687 14.7181 9.20562C14.9369 9.28437 15.1425 9.28 15.335 9.1925C15.5975 9.0875 15.7769 8.90812 15.8731 8.65437C15.9694 8.40062 15.9475 8.16875 15.8075 7.95875C15.5275 7.55625 15.1819 7.215 14.7706 6.935C14.3594 6.655 13.9175 6.4975 13.445 6.4625V6.06875C13.445 5.82375 13.3531 5.60937 13.1694 5.42562C12.9856 5.24187 12.7712 5.15 12.5262 5.15C12.2812 5.15 12.0669 5.24187 11.8831 5.42562C11.6994 5.60937 11.6075 5.82375 11.6075 6.06875V6.4625C10.7325 6.655 10.05 7.04 9.56 7.6175C9.07 8.195 8.825 8.8425 8.825 9.56C8.825 10.3825 9.06563 11.0475 9.54688 11.555C10.0281 12.0625 10.785 12.5 11.8175 12.8675C12.92 13.27 13.6856 13.6287 14.1144 13.9437C14.5431 14.2587 14.7575 14.67 14.7575 15.1775C14.7575 15.755 14.5519 16.1794 14.1406 16.4506C13.7294 16.7219 13.235 16.8575 12.6575 16.8575C12.2025 16.8575 11.7912 16.7481 11.4237 16.5294C11.0562 16.3106 10.75 15.9825 10.505 15.545C10.365 15.3 10.1812 15.1337 9.95375 15.0462C9.72625 14.9587 9.49875 14.9587 9.27125 15.0462C9.02625 15.1337 8.84687 15.3 8.73312 15.545C8.61937 15.79 8.615 16.0262 8.72 16.2537C9 16.8487 9.37625 17.3344 9.84875 17.7106C10.3212 18.0869 10.89 18.345 11.555 18.485V18.9312C11.555 19.1762 11.6469 19.3906 11.8306 19.5744C12.0144 19.7581 12.2288 19.85 12.4738 19.85Z" fill="currentColor"/>
</svg>
