<svg width="25" height="25" viewBox="0 0 25 25" fill="none" xmlns="http://www.w3.org/2000/svg">
<path d="M7.29199 22.9168C6.71908 22.9168 6.22862 22.7128 5.82064 22.3048C5.41265 21.8969 5.20866 21.4064 5.20866 20.8335C5.20866 20.2606 5.41265 19.7701 5.82064 19.3621C6.22862 18.9542 6.71908 18.7502 7.29199 18.7502C7.86491 18.7502 8.35536 18.9542 8.76335 19.3621C9.17133 19.7701 9.37533 20.2606 9.37533 20.8335C9.37533 21.4064 9.17133 21.8969 8.76335 22.3048C8.35536 22.7128 7.86491 22.9168 7.29199 22.9168ZM17.7087 22.9168C17.1357 22.9168 16.6453 22.7128 16.2373 22.3048C15.8293 21.8969 15.6253 21.4064 15.6253 20.8335C15.6253 20.2606 15.8293 19.7701 16.2373 19.3621C16.6453 18.9542 17.1357 18.7502 17.7087 18.7502C18.2816 18.7502 18.772 18.9542 19.18 19.3621C19.588 19.7701 19.792 20.2606 19.792 20.8335C19.792 21.4064 19.588 21.8969 19.18 22.3048C18.772 22.7128 18.2816 22.9168 17.7087 22.9168ZM5.41699 4.16683H20.7816C21.1809 4.16683 21.4847 4.34478 21.693 4.70068C21.9014 5.05659 21.91 5.41683 21.7191 5.78141L18.0212 12.4481C17.8302 12.7953 17.5741 13.0644 17.2529 13.2554C16.9317 13.4463 16.5802 13.5418 16.1982 13.5418H8.43783L7.29199 15.6252H18.7503C19.0455 15.6252 19.2929 15.725 19.4925 15.9246C19.6922 16.1243 19.792 16.3717 19.792 16.6668C19.792 16.962 19.6922 17.2094 19.4925 17.409C19.2929 17.6087 19.0455 17.7085 18.7503 17.7085H7.29199C6.51074 17.7085 5.92046 17.3656 5.52116 16.6798C5.12185 15.9941 5.10449 15.3127 5.46908 14.6356L6.87533 12.0835L3.12533 4.16683H2.08366C1.78852 4.16683 1.54112 4.067 1.34147 3.86735C1.14182 3.6677 1.04199 3.4203 1.04199 3.12516C1.04199 2.83002 1.14182 2.58263 1.34147 2.38298C1.54112 2.18332 1.78852 2.0835 2.08366 2.0835H3.77637C3.96734 2.0835 4.14963 2.13558 4.32324 2.23975C4.49685 2.34391 4.62706 2.49148 4.71387 2.68245L5.41699 4.16683Z" fill="currentColor"/>
</svg>
