<svg width="25" height="25" viewBox="0 0 25 25" fill="none" xmlns="http://www.w3.org/2000/svg">
<path d="M4.16683 22.9168C3.59391 22.9168 3.10346 22.7128 2.69548 22.3048C2.28749 21.8969 2.0835 21.4064 2.0835 20.8335V10.4168C2.0835 9.84391 2.28749 9.35346 2.69548 8.94547C3.10346 8.53749 3.59391 8.3335 4.16683 8.3335H20.8335C21.4064 8.3335 21.8969 8.53749 22.3048 8.94547C22.7128 9.35346 22.9168 9.84391 22.9168 10.4168V20.8335C22.9168 21.4064 22.7128 21.8969 22.3048 22.3048C21.8969 22.7128 21.4064 22.9168 20.8335 22.9168H4.16683ZM11.2241 19.245L16.0158 16.0679C16.172 15.9637 16.2502 15.8161 16.2502 15.6252C16.2502 15.4342 16.172 15.2866 16.0158 15.1825L11.2241 12.0054C11.0505 11.8838 10.8726 11.8708 10.6903 11.9663C10.508 12.0618 10.4168 12.2137 10.4168 12.422V18.8283C10.4168 19.0366 10.508 19.1885 10.6903 19.284C10.8726 19.3795 11.0505 19.3665 11.2241 19.245ZM5.2085 7.29183C4.91336 7.29183 4.66596 7.192 4.46631 6.99235C4.26666 6.7927 4.16683 6.5453 4.16683 6.25016C4.16683 5.95502 4.26666 5.70763 4.46631 5.50797C4.66596 5.30832 4.91336 5.2085 5.2085 5.2085H19.7918C20.087 5.2085 20.3344 5.30832 20.534 5.50797C20.7337 5.70763 20.8335 5.95502 20.8335 6.25016C20.8335 6.5453 20.7337 6.7927 20.534 6.99235C20.3344 7.192 20.087 7.29183 19.7918 7.29183H5.2085ZM8.3335 4.16683C8.03836 4.16683 7.79096 4.067 7.59131 3.86735C7.39166 3.6677 7.29183 3.4203 7.29183 3.12516C7.29183 2.83002 7.39166 2.58263 7.59131 2.38298C7.79096 2.18332 8.03836 2.0835 8.3335 2.0835H16.6668C16.962 2.0835 17.2094 2.18332 17.409 2.38298C17.6087 2.58263 17.7085 2.83002 17.7085 3.12516C17.7085 3.4203 17.6087 3.6677 17.409 3.86735C17.2094 4.067 16.962 4.16683 16.6668 4.16683H8.3335Z" fill="currentColor"/>
</svg>
