<svg width="16" height="16" viewBox="0 0 16 16" fill="none" xmlns="http://www.w3.org/2000/svg">
<path d="M1.79991 11.7501C1.66658 11.6168 1.60269 11.4585 1.60824 11.2751C1.6138 11.0918 1.67769 10.939 1.79991 10.8168L5.31658 7.25013C5.57213 6.99457 5.8888 6.8668 6.26658 6.8668C6.64435 6.8668 6.96102 6.99457 7.21658 7.25013L8.93324 8.98346L12.3999 5.55013H11.3332C11.1444 5.55013 10.986 5.48624 10.8582 5.35846C10.7305 5.23069 10.6666 5.07235 10.6666 4.88346C10.6666 4.69457 10.7305 4.53624 10.8582 4.40846C10.986 4.28069 11.1444 4.2168 11.3332 4.2168H13.9999C14.1888 4.2168 14.3471 4.28069 14.4749 4.40846C14.6027 4.53624 14.6666 4.69457 14.6666 4.88346V7.55013C14.6666 7.73902 14.6027 7.89735 14.4749 8.02513C14.3471 8.15291 14.1888 8.2168 13.9999 8.2168C13.811 8.2168 13.6527 8.15291 13.5249 8.02513C13.3971 7.89735 13.3332 7.73902 13.3332 7.55013V6.48346L9.88324 9.93346C9.62769 10.189 9.31102 10.3168 8.93324 10.3168C8.55547 10.3168 8.2388 10.189 7.98324 9.93346L6.26658 8.2168L2.73324 11.7501C2.61102 11.8724 2.45547 11.9335 2.26658 11.9335C2.07769 11.9335 1.92213 11.8724 1.79991 11.7501Z" fill="#EA3323"/>
</svg>
