<svg width="17" height="16" viewBox="0 0 17 16" fill="none" xmlns="http://www.w3.org/2000/svg">
<path d="M12.85 11.3165L9.31668 7.79987L7.63335 9.4832C7.40001 9.71654 7.11668 9.8332 6.78335 9.8332C6.45001 9.8332 6.16668 9.71654 5.93335 9.4832L2.51168 6.06004C2.39279 5.94215 2.33613 5.80265 2.34168 5.64154C2.34724 5.48043 2.41113 5.33876 2.53335 5.21654C2.65557 5.09431 2.79724 5.0332 2.95835 5.0332C3.11946 5.0332 3.26113 5.09431 3.38335 5.21654L6.78335 8.6332L8.46668 6.94987C8.70001 6.71654 8.98335 6.59987 9.31668 6.59987C9.65001 6.59987 9.93335 6.71654 10.1667 6.94987L13.7 10.4665V9.11654C13.7 8.94654 13.7572 8.80404 13.8715 8.68904C13.9858 8.57404 14.1275 8.51654 14.2965 8.51654C14.4655 8.51654 14.6083 8.57404 14.725 8.68904C14.8417 8.80404 14.9 8.94654 14.9 9.11654V11.9165C14.9 12.0865 14.8425 12.229 14.7275 12.344C14.6125 12.459 14.47 12.5165 14.3 12.5165H11.5C11.33 12.5165 11.1875 12.4594 11.0725 12.345C10.9575 12.2307 10.9 12.089 10.9 11.92C10.9 11.751 10.9575 11.6082 11.0725 11.4915C11.1875 11.3749 11.33 11.3165 11.5 11.3165H12.85Z" fill="#75FB4C"/>
</svg>
