<svg width="32" height="32" viewBox="0 0 26 26" fill="none" xmlns="http://www.w3.org/2000/svg">
<path d="M6.33783 18.5253C7.25866 17.8212 8.28783 17.266 9.42533 16.8597C10.5628 16.4535 11.7545 16.2503 13.0003 16.2503C14.2462 16.2503 15.4378 16.4535 16.5753 16.8597C17.7128 17.266 18.742 17.8212 19.6628 18.5253C20.2948 17.7851 20.7868 16.9455 21.1389 16.0066C21.491 15.0677 21.667 14.0656 21.667 13.0003C21.667 10.5989 20.8229 8.55415 19.1347 6.86595C17.4465 5.17776 15.4017 4.33366 13.0003 4.33366C10.5989 4.33366 8.55415 5.17776 6.86595 6.86595C5.17776 8.55415 4.33366 10.5989 4.33366 13.0003C4.33366 14.0656 4.5097 15.0677 4.86178 16.0066C5.21387 16.9455 5.70588 17.7851 6.33783 18.5253ZM13.0003 14.0837C11.935 14.0837 11.0368 13.718 10.3055 12.9868C9.57428 12.2555 9.20866 11.3573 9.20866 10.292C9.20866 9.22672 9.57428 8.32845 10.3055 7.5972C11.0368 6.86595 11.935 6.50033 13.0003 6.50033C14.0656 6.50033 14.9639 6.86595 15.6951 7.5972C16.4264 8.32845 16.792 9.22672 16.792 10.292C16.792 11.3573 16.4264 12.2555 15.6951 12.9868C14.9639 13.718 14.0656 14.0837 13.0003 14.0837ZM13.0003 23.8337C11.5017 23.8337 10.0934 23.5493 8.77533 22.9805C7.45727 22.4118 6.31074 21.6399 5.33574 20.6649C4.36074 19.6899 3.58887 18.5434 3.02012 17.2253C2.45137 15.9073 2.16699 14.4989 2.16699 13.0003C2.16699 11.5017 2.45137 10.0934 3.02012 8.77533C3.58887 7.45727 4.36074 6.31074 5.33574 5.33574C6.31074 4.36074 7.45727 3.58887 8.77533 3.02012C10.0934 2.45137 11.5017 2.16699 13.0003 2.16699C14.4989 2.16699 15.9073 2.45137 17.2253 3.02012C18.5434 3.58887 19.6899 4.36074 20.6649 5.33574C21.6399 6.31074 22.4118 7.45727 22.9805 8.77533C23.5493 10.0934 23.8337 11.5017 23.8337 13.0003C23.8337 14.4989 23.5493 15.9073 22.9805 17.2253C22.4118 18.5434 21.6399 19.6899 20.6649 20.6649C19.6899 21.6399 18.5434 22.4118 17.2253 22.9805C15.9073 23.5493 14.4989 23.8337 13.0003 23.8337Z" fill="#FEF9E1"/>
</svg>
