<svg width="32" height="32" viewBox="0 0 26 26" fill="none" xmlns="http://www.w3.org/2000/svg">
<path d="M11.9165 15.167H14.0832C14.3901 15.167 14.6474 15.0632 14.855 14.8555C15.0627 14.6479 15.1665 14.3906 15.1665 14.0837C15.1665 13.7767 15.0627 13.5194 14.855 13.3118C14.6474 13.1041 14.3901 13.0003 14.0832 13.0003H11.9165C11.6096 13.0003 11.3523 13.1041 11.1446 13.3118C10.937 13.5194 10.8332 13.7767 10.8332 14.0837C10.8332 14.3906 10.937 14.6479 11.1446 14.8555C11.3523 15.0632 11.6096 15.167 11.9165 15.167ZM11.9165 11.917H18.4165C18.7234 11.917 18.9807 11.8132 19.1884 11.6055C19.396 11.3979 19.4998 11.1406 19.4998 10.8337C19.4998 10.5267 19.396 10.2694 19.1884 10.0618C18.9807 9.85415 18.7234 9.75033 18.4165 9.75033H11.9165C11.6096 9.75033 11.3523 9.85415 11.1446 10.0618C10.937 10.2694 10.8332 10.5267 10.8332 10.8337C10.8332 11.1406 10.937 11.3979 11.1446 11.6055C11.3523 11.8132 11.6096 11.917 11.9165 11.917ZM11.9165 8.66699H18.4165C18.7234 8.66699 18.9807 8.56317 19.1884 8.35553C19.396 8.1479 19.4998 7.8906 19.4998 7.58366C19.4998 7.27671 19.396 7.01942 19.1884 6.81178C18.9807 6.60415 18.7234 6.50033 18.4165 6.50033H11.9165C11.6096 6.50033 11.3523 6.60415 11.1446 6.81178C10.937 7.01942 10.8332 7.27671 10.8332 7.58366C10.8332 7.8906 10.937 8.1479 11.1446 8.35553C11.3523 8.56317 11.6096 8.66699 11.9165 8.66699ZM8.6665 19.5003C8.07067 19.5003 7.5606 19.2882 7.1363 18.8639C6.71199 18.4396 6.49984 17.9295 6.49984 17.3337V4.33366C6.49984 3.73783 6.71199 3.22776 7.1363 2.80345C7.5606 2.37914 8.07067 2.16699 8.6665 2.16699H21.6665C22.2623 2.16699 22.7724 2.37914 23.1967 2.80345C23.621 3.22776 23.8332 3.73783 23.8332 4.33366V17.3337C23.8332 17.9295 23.621 18.4396 23.1967 18.8639C22.7724 19.2882 22.2623 19.5003 21.6665 19.5003H8.6665ZM4.33317 23.8337C3.73734 23.8337 3.22727 23.6215 2.80296 23.1972C2.37866 22.7729 2.1665 22.2628 2.1665 21.667V7.58366C2.1665 7.27671 2.27032 7.01942 2.47796 6.81178C2.6856 6.60415 2.94289 6.50033 3.24984 6.50033C3.55678 6.50033 3.81407 6.60415 4.02171 6.81178C4.22935 7.01942 4.33317 7.27671 4.33317 7.58366V21.667H18.4165C18.7234 21.667 18.9807 21.7708 19.1884 21.9785C19.396 22.1861 19.4998 22.4434 19.4998 22.7503C19.4998 23.0573 19.396 23.3146 19.1884 23.5222C18.9807 23.7298 18.7234 23.8337 18.4165 23.8337H4.33317Z" fill="#FEF9E1"/>
</svg>
