<svg width="32" height="32" viewBox="0 0 26 26" fill="none" xmlns="http://www.w3.org/2000/svg">
<path d="M8.04375 10.2648L12.0792 3.68353C12.1875 3.50297 12.3229 3.37207 12.4854 3.29082C12.6479 3.20957 12.8194 3.16895 13 3.16895C13.1806 3.16895 13.3521 3.20957 13.5146 3.29082C13.6771 3.37207 13.8125 3.50297 13.9208 3.68353L17.9562 10.2648C18.0646 10.4453 18.1187 10.6349 18.1187 10.8335C18.1187 11.0321 18.0736 11.2127 17.9833 11.3752C17.8931 11.5377 17.7667 11.6686 17.6042 11.7679C17.4417 11.8672 17.2521 11.9169 17.0354 11.9169H8.96458C8.74792 11.9169 8.55833 11.8672 8.39583 11.7679C8.23333 11.6686 8.10694 11.5377 8.01667 11.3752C7.92639 11.2127 7.88125 11.0321 7.88125 10.8335C7.88125 10.6349 7.93542 10.4453 8.04375 10.2648ZM18.9583 23.8335C17.6042 23.8335 16.4531 23.3596 15.5052 22.4117C14.5573 21.4637 14.0833 20.3127 14.0833 18.9585C14.0833 17.6044 14.5573 16.4533 15.5052 15.5054C16.4531 14.5575 17.6042 14.0835 18.9583 14.0835C20.3125 14.0835 21.4635 14.5575 22.4115 15.5054C23.3594 16.4533 23.8333 17.6044 23.8333 18.9585C23.8333 20.3127 23.3594 21.4637 22.4115 22.4117C21.4635 23.3596 20.3125 23.8335 18.9583 23.8335ZM3.25 22.2085V15.7085C3.25 15.4016 3.35382 15.1443 3.56146 14.9367C3.7691 14.729 4.02639 14.6252 4.33333 14.6252H10.8333C11.1403 14.6252 11.3976 14.729 11.6052 14.9367C11.8128 15.1443 11.9167 15.4016 11.9167 15.7085V22.2085C11.9167 22.5155 11.8128 22.7728 11.6052 22.9804C11.3976 23.188 11.1403 23.2919 10.8333 23.2919H4.33333C4.02639 23.2919 3.7691 23.188 3.56146 22.9804C3.35382 22.7728 3.25 22.5155 3.25 22.2085Z" fill="#FEF9E1"/>
</svg>
