<svg width="26" height="26" viewBox="0 0 26 26" fill="none" xmlns="http://www.w3.org/2000/svg">
<path d="M7.5835 22.75C6.98766 22.75 6.47759 22.5378 6.05329 22.1135C5.62898 21.6892 5.41683 21.1792 5.41683 20.5833V6.5C5.10988 6.5 4.85259 6.39618 4.64495 6.18854C4.43732 5.9809 4.3335 5.72361 4.3335 5.41667C4.3335 5.10972 4.43732 4.85243 4.64495 4.64479C4.85259 4.43715 5.10988 4.33333 5.41683 4.33333H9.75016C9.75016 4.02639 9.85398 3.7691 10.0616 3.56146C10.2693 3.35382 10.5266 3.25 10.8335 3.25H15.1668C15.4738 3.25 15.7311 3.35382 15.9387 3.56146C16.1463 3.7691 16.2502 4.02639 16.2502 4.33333H20.5835C20.8904 4.33333 21.1477 4.43715 21.3554 4.64479C21.563 4.85243 21.6668 5.10972 21.6668 5.41667C21.6668 5.72361 21.563 5.9809 21.3554 6.18854C21.1477 6.39618 20.8904 6.5 20.5835 6.5V20.5833C20.5835 21.1792 20.3713 21.6892 19.947 22.1135C19.5227 22.5378 19.0127 22.75 18.4168 22.75H7.5835ZM10.8335 18.4167C11.1404 18.4167 11.3977 18.3128 11.6054 18.1052C11.813 17.8976 11.9168 17.6403 11.9168 17.3333V9.75C11.9168 9.44306 11.813 9.18576 11.6054 8.97813C11.3977 8.77049 11.1404 8.66667 10.8335 8.66667C10.5266 8.66667 10.2693 8.77049 10.0616 8.97813C9.85398 9.18576 9.75016 9.44306 9.75016 9.75V17.3333C9.75016 17.6403 9.85398 17.8976 10.0616 18.1052C10.2693 18.3128 10.5266 18.4167 10.8335 18.4167ZM15.1668 18.4167C15.4738 18.4167 15.7311 18.3128 15.9387 18.1052C16.1463 17.8976 16.2502 17.6403 16.2502 17.3333V9.75C16.2502 9.44306 16.1463 9.18576 15.9387 8.97813C15.7311 8.77049 15.4738 8.66667 15.1668 8.66667C14.8599 8.66667 14.6026 8.77049 14.395 8.97813C14.1873 9.18576 14.0835 9.44306 14.0835 9.75V17.3333C14.0835 17.6403 14.1873 17.8976 14.395 18.1052C14.6026 18.3128 14.8599 18.4167 15.1668 18.4167Z" fill="#EA3323"/>
</svg>
