<svg width="32" height="32" viewBox="0 0 26 26" fill="none" xmlns="http://www.w3.org/2000/svg">
<path d="M5.41667 22.75C4.82083 22.75 4.31076 22.5378 3.88646 22.1135C3.46215 21.6892 3.25 21.1792 3.25 20.5833V5.41667C3.25 4.82083 3.46215 4.31076 3.88646 3.88646C4.31076 3.46215 4.82083 3.25 5.41667 3.25H11.9167C12.2236 3.25 12.4809 3.35382 12.6885 3.56146C12.8962 3.7691 13 4.02639 13 4.33333C13 4.64028 12.8962 4.89757 12.6885 5.10521C12.4809 5.31285 12.2236 5.41667 11.9167 5.41667H5.41667V20.5833H11.9167C12.2236 20.5833 12.4809 20.6872 12.6885 20.8948C12.8962 21.1024 13 21.3597 13 21.6667C13 21.9736 12.8962 22.2309 12.6885 22.4385C12.4809 22.6462 12.2236 22.75 11.9167 22.75H5.41667ZM18.6062 14.0833H10.8333C10.5264 14.0833 10.2691 13.9795 10.0615 13.7719C9.85382 13.5642 9.75 13.3069 9.75 13C9.75 12.6931 9.85382 12.4358 10.0615 12.2281C10.2691 12.0205 10.5264 11.9167 10.8333 11.9167H18.6062L16.575 9.88542C16.3764 9.68681 16.2771 9.44306 16.2771 9.15417C16.2771 8.86528 16.3764 8.6125 16.575 8.39583C16.7736 8.17917 17.0264 8.06632 17.3333 8.05729C17.6403 8.04826 17.9021 8.15208 18.1187 8.36875L21.9917 12.2417C22.2083 12.4583 22.3167 12.7111 22.3167 13C22.3167 13.2889 22.2083 13.5417 21.9917 13.7583L18.1187 17.6313C17.9021 17.8479 17.6448 17.9517 17.3469 17.9427C17.049 17.9337 16.7917 17.8208 16.575 17.6042C16.3764 17.3875 16.2816 17.1302 16.2906 16.8323C16.2997 16.5344 16.4035 16.2861 16.6021 16.0875L18.6062 14.0833Z" fill="#EA3323"/>
</svg>
