<svg width="32" height="32" viewBox="0 0 26 26" fill="none" xmlns="http://www.w3.org/2000/svg">
<path d="M11.7269 23.8337C11.2394 23.8337 10.8196 23.6712 10.4676 23.3462C10.1155 23.0212 9.90333 22.6239 9.83111 22.1545L9.58736 20.367C9.35263 20.2767 9.13145 20.1684 8.92381 20.042C8.71618 19.9156 8.51305 19.7802 8.31444 19.6357L6.63527 20.3399C6.18388 20.5385 5.7325 20.5566 5.28111 20.3941C4.82972 20.2316 4.47763 19.9427 4.22486 19.5274L2.95194 17.3066C2.69916 16.8913 2.62694 16.4489 2.73527 15.9795C2.84361 15.51 3.08736 15.1219 3.46652 14.8149L4.90194 13.7316C4.88388 13.6052 4.87486 13.4833 4.87486 13.3659V12.6347C4.87486 12.5173 4.88388 12.3955 4.90194 12.2691L3.46652 11.1857C3.08736 10.8788 2.84361 10.4906 2.73527 10.0212C2.62694 9.55171 2.69916 9.10935 2.95194 8.69408L4.22486 6.47324C4.47763 6.05796 4.82972 5.76908 5.28111 5.60658C5.7325 5.44408 6.18388 5.46213 6.63527 5.66074L8.31444 6.36491C8.51305 6.22046 8.72069 6.08505 8.93736 5.95866C9.15402 5.83227 9.37069 5.72394 9.58736 5.63366L9.83111 3.84616C9.90333 3.37671 10.1155 2.97949 10.4676 2.65449C10.8196 2.32949 11.2394 2.16699 11.7269 2.16699H14.2728C14.7603 2.16699 15.1801 2.32949 15.5321 2.65449C15.8842 2.97949 16.0964 3.37671 16.1686 3.84616L16.4124 5.63366C16.6471 5.72394 16.8683 5.83227 17.0759 5.95866C17.2835 6.08505 17.4867 6.22046 17.6853 6.36491L19.3644 5.66074C19.8158 5.46213 20.2672 5.44408 20.7186 5.60658C21.17 5.76908 21.5221 6.05796 21.7749 6.47324L23.0478 8.69408C23.3005 9.10935 23.3728 9.55171 23.2644 10.0212C23.1561 10.4906 22.9124 10.8788 22.5332 11.1857L21.0978 12.2691C21.1158 12.3955 21.1249 12.5173 21.1249 12.6347V13.3659C21.1249 13.4833 21.1068 13.6052 21.0707 13.7316L22.5061 14.8149C22.8853 15.1219 23.129 15.51 23.2374 15.9795C23.3457 16.4489 23.2735 16.8913 23.0207 17.3066L21.7207 19.5274C21.4679 19.9427 21.1158 20.2316 20.6644 20.3941C20.213 20.5566 19.7617 20.5385 19.3103 20.3399L17.6853 19.6357C17.4867 19.7802 17.279 19.9156 17.0624 20.042C16.8457 20.1684 16.629 20.2767 16.4124 20.367L16.1686 22.1545C16.0964 22.6239 15.8842 23.0212 15.5321 23.3462C15.1801 23.6712 14.7603 23.8337 14.2728 23.8337H11.7269ZM13.054 16.792C14.1012 16.792 14.995 16.4219 15.7353 15.6816C16.4756 14.9413 16.8457 14.0475 16.8457 13.0003C16.8457 11.9531 16.4756 11.0594 15.7353 10.3191C14.995 9.5788 14.1012 9.20866 13.054 9.20866C11.9887 9.20866 11.0905 9.5788 10.3592 10.3191C9.62798 11.0594 9.26236 11.9531 9.26236 13.0003C9.26236 14.0475 9.62798 14.9413 10.3592 15.6816C11.0905 16.4219 11.9887 16.792 13.054 16.792Z" fill="#FEF9E1"/>
</svg>
