<svg width="25" height="24" viewBox="0 0 25 24" fill="none" xmlns="http://www.w3.org/2000/svg">
<path d="M17.25 20C16.9667 20 16.7292 19.9042 16.5375 19.7125C16.3458 19.5208 16.25 19.2833 16.25 19V14C16.25 13.7167 16.3458 13.4792 16.5375 13.2875C16.7292 13.0958 16.9667 13 17.25 13H19.25C19.5333 13 19.7708 13.0958 19.9625 13.2875C20.1542 13.4792 20.25 13.7167 20.25 14V19C20.25 19.2833 20.1542 19.5208 19.9625 19.7125C19.7708 19.9042 19.5333 20 19.25 20H17.25ZM11.25 20C10.9667 20 10.7292 19.9042 10.5375 19.7125C10.3458 19.5208 10.25 19.2833 10.25 19V5C10.25 4.71667 10.3458 4.47917 10.5375 4.2875C10.7292 4.09583 10.9667 4 11.25 4H13.25C13.5333 4 13.7708 4.09583 13.9625 4.2875C14.1542 4.47917 14.25 4.71667 14.25 5V19C14.25 19.2833 14.1542 19.5208 13.9625 19.7125C13.7708 19.9042 13.5333 20 13.25 20H11.25ZM5.25 20C4.96667 20 4.72917 19.9042 4.5375 19.7125C4.34583 19.5208 4.25 19.2833 4.25 19V10C4.25 9.71667 4.34583 9.47917 4.5375 9.2875C4.72917 9.09583 4.96667 9 5.25 9H7.25C7.53333 9 7.77083 9.09583 7.9625 9.2875C8.15417 9.47917 8.25 9.71667 8.25 10V19C8.25 19.2833 8.15417 19.5208 7.9625 19.7125C7.77083 19.9042 7.53333 20 7.25 20H5.25Z" fill="#FEF9E1"/>
</svg>
