<svg width="25" height="24" viewBox="0 0 25 24" fill="none" xmlns="http://www.w3.org/2000/svg">
<path d="M13.75 17.05C14.4833 16.7 15.2208 16.4375 15.9625 16.2625C16.7042 16.0875 17.4667 16 18.25 16C18.85 16 19.4375 16.05 20.0125 16.15C20.5875 16.25 21.1667 16.4 21.75 16.6V6.7C21.2 6.46667 20.6292 6.29167 20.0375 6.175C19.4458 6.05833 18.85 6 18.25 6C17.4667 6 16.6917 6.1 15.925 6.3C15.1583 6.5 14.4333 6.8 13.75 7.2V17.05ZM12.75 19.475C12.5167 19.475 12.2958 19.4458 12.0875 19.3875C11.8792 19.3292 11.6833 19.25 11.5 19.15C10.85 18.7667 10.1667 18.4792 9.45 18.2875C8.73333 18.0958 8 18 7.25 18C6.55 18 5.8625 18.0917 5.1875 18.275C4.5125 18.4583 3.86667 18.7167 3.25 19.05C2.9 19.2333 2.5625 19.225 2.2375 19.025C1.9125 18.825 1.75 18.5333 1.75 18.15V6.1C1.75 5.91667 1.79583 5.74167 1.8875 5.575C1.97917 5.40833 2.11667 5.28333 2.3 5.2C3.08333 4.81667 3.8875 4.52083 4.7125 4.3125C5.5375 4.10417 6.38333 4 7.25 4C8.21667 4 9.1625 4.125 10.0875 4.375C11.0125 4.625 11.9 5 12.75 5.5C13.6 5 14.4875 4.625 15.4125 4.375C16.3375 4.125 17.2833 4 18.25 4C19.1167 4 19.9625 4.10417 20.7875 4.3125C21.6125 4.52083 22.4167 4.81667 23.2 5.2C23.3833 5.28333 23.5208 5.40833 23.6125 5.575C23.7042 5.74167 23.75 5.91667 23.75 6.1V18.15C23.75 18.5333 23.5875 18.825 23.2625 19.025C22.9375 19.225 22.6 19.2333 22.25 19.05C21.6333 18.7167 20.9875 18.4583 20.3125 18.275C19.6375 18.0917 18.95 18 18.25 18C17.5 18 16.7667 18.0958 16.05 18.2875C15.3333 18.4792 14.65 18.7667 14 19.15C13.8167 19.25 13.6208 19.3292 13.4125 19.3875C13.2042 19.4458 12.9833 19.475 12.75 19.475ZM14.75 8.775C14.75 8.625 14.8042 8.47083 14.9125 8.3125C15.0208 8.15417 15.1417 8.05 15.275 8C15.7583 7.83333 16.2417 7.70833 16.725 7.625C17.2083 7.54167 17.7167 7.5 18.25 7.5C18.5833 7.5 18.9125 7.52083 19.2375 7.5625C19.5625 7.60417 19.8833 7.65833 20.2 7.725C20.35 7.75833 20.4792 7.84167 20.5875 7.975C20.6958 8.10833 20.75 8.25833 20.75 8.425C20.75 8.70833 20.6583 8.91667 20.475 9.05C20.2917 9.18333 20.0583 9.21667 19.775 9.15C19.5417 9.1 19.2958 9.0625 19.0375 9.0375C18.7792 9.0125 18.5167 9 18.25 9C17.8167 9 17.3917 9.04167 16.975 9.125C16.5583 9.20833 16.1583 9.31667 15.775 9.45C15.475 9.56667 15.2292 9.55833 15.0375 9.425C14.8458 9.29167 14.75 9.075 14.75 8.775ZM14.75 14.275C14.75 14.125 14.8042 13.9708 14.9125 13.8125C15.0208 13.6542 15.1417 13.55 15.275 13.5C15.7583 13.3333 16.2417 13.2083 16.725 13.125C17.2083 13.0417 17.7167 13 18.25 13C18.5833 13 18.9125 13.0208 19.2375 13.0625C19.5625 13.1042 19.8833 13.1583 20.2 13.225C20.35 13.2583 20.4792 13.3417 20.5875 13.475C20.6958 13.6083 20.75 13.7583 20.75 13.925C20.75 14.2083 20.6583 14.4167 20.475 14.55C20.2917 14.6833 20.0583 14.7167 19.775 14.65C19.5417 14.6 19.2958 14.5625 19.0375 14.5375C18.7792 14.5125 18.5167 14.5 18.25 14.5C17.8167 14.5 17.3917 14.5375 16.975 14.6125C16.5583 14.6875 16.1583 14.7917 15.775 14.925C15.475 15.0417 15.2292 15.0375 15.0375 14.9125C14.8458 14.7875 14.75 14.575 14.75 14.275ZM14.75 11.525C14.75 11.375 14.8042 11.2208 14.9125 11.0625C15.0208 10.9042 15.1417 10.8 15.275 10.75C15.7583 10.5833 16.2417 10.4583 16.725 10.375C17.2083 10.2917 17.7167 10.25 18.25 10.25C18.5833 10.25 18.9125 10.2708 19.2375 10.3125C19.5625 10.3542 19.8833 10.4083 20.2 10.475C20.35 10.5083 20.4792 10.5917 20.5875 10.725C20.6958 10.8583 20.75 11.0083 20.75 11.175C20.75 11.4583 20.6583 11.6667 20.475 11.8C20.2917 11.9333 20.0583 11.9667 19.775 11.9C19.5417 11.85 19.2958 11.8125 19.0375 11.7875C18.7792 11.7625 18.5167 11.75 18.25 11.75C17.8167 11.75 17.3917 11.7917 16.975 11.875C16.5583 11.9583 16.1583 12.0667 15.775 12.2C15.475 12.3167 15.2292 12.3083 15.0375 12.175C14.8458 12.0417 14.75 11.825 14.75 11.525Z" fill="#FEF9E1"/>
</svg>
