<svg width="30" height="30" viewBox="0 0 20 20" fill="none" xmlns="http://www.w3.org/2000/svg">
<path d="M11.8957 14.3753C12.0484 14.2364 12.1318 14.0628 12.1457 13.8545C12.1596 13.6462 12.0901 13.4656 11.9373 13.3128L9.62484 10.8753L9.64567 10.8128H9.854C10.604 10.8128 11.2255 10.5837 11.7186 10.1253C12.2116 9.66699 12.5137 9.13227 12.6248 8.52116H12.979C13.1179 8.52116 13.2325 8.47255 13.3228 8.37533C13.413 8.2781 13.4582 8.16005 13.4582 8.02116C13.4582 7.88227 13.413 7.76769 13.3228 7.67741C13.2325 7.58713 13.1179 7.54199 12.979 7.54199H12.604C12.5623 7.33366 12.4894 7.13574 12.3853 6.94824C12.2811 6.76074 12.1526 6.57671 11.9998 6.39616H12.979C13.1179 6.39616 13.2325 6.34755 13.3228 6.25033C13.413 6.1531 13.4582 6.03505 13.4582 5.89616C13.4582 5.75727 13.413 5.64269 13.3228 5.55241C13.2325 5.46213 13.1179 5.41699 12.979 5.41699H7.14567C6.979 5.41699 6.83664 5.47602 6.71859 5.59408C6.60053 5.71213 6.5415 5.85449 6.5415 6.02116C6.5415 6.18783 6.60053 6.32671 6.71859 6.43783C6.83664 6.54894 6.979 6.60449 7.14567 6.60449H9.7915C10.1526 6.60449 10.4478 6.69477 10.6769 6.87533C10.9061 7.05588 11.0623 7.2781 11.1457 7.54199H7.02067C6.88178 7.54199 6.7672 7.5906 6.67692 7.68783C6.58664 7.78505 6.5415 7.9031 6.5415 8.04199C6.5415 8.18088 6.58664 8.29546 6.67692 8.38574C6.7672 8.47602 6.88178 8.52116 7.02067 8.52116H11.1665C11.0832 8.79894 10.9234 9.03852 10.6873 9.23991C10.4512 9.4413 10.1318 9.54199 9.729 9.54199H8.31234C8.13178 9.54199 7.97553 9.58366 7.84359 9.66699C7.71164 9.75033 7.61095 9.86838 7.5415 10.0212C7.47206 10.1739 7.45123 10.3302 7.479 10.4899C7.50678 10.6496 7.58317 10.7989 7.70817 10.9378L10.8332 14.3545C10.9721 14.5073 11.1457 14.5837 11.354 14.5837C11.5623 14.5837 11.7429 14.5142 11.8957 14.3753ZM9.99984 18.3337C8.84706 18.3337 7.76373 18.1149 6.74984 17.6774C5.73595 17.2399 4.854 16.6462 4.104 15.8962C3.354 15.1462 2.76025 14.2642 2.32275 13.2503C1.88525 12.2364 1.6665 11.1531 1.6665 10.0003C1.6665 8.84755 1.88525 7.76421 2.32275 6.75033C2.76025 5.73644 3.354 4.85449 4.104 4.10449C4.854 3.35449 5.73595 2.76074 6.74984 2.32324C7.76373 1.88574 8.84706 1.66699 9.99984 1.66699C11.1526 1.66699 12.2359 1.88574 13.2498 2.32324C14.2637 2.76074 15.1457 3.35449 15.8957 4.10449C16.6457 4.85449 17.2394 5.73644 17.6769 6.75033C18.1144 7.76421 18.3332 8.84755 18.3332 10.0003C18.3332 11.1531 18.1144 12.2364 17.6769 13.2503C17.2394 14.2642 16.6457 15.1462 15.8957 15.8962C15.1457 16.6462 14.2637 17.2399 13.2498 17.6774C12.2359 18.1149 11.1526 18.3337 9.99984 18.3337Z" fill="#72FF35"/>
</svg>
