<svg width="30" height="30" viewBox="0 0 25 25" fill="none" xmlns="http://www.w3.org/2000/svg">
<path d="M12.5778 16.12C12.0743 16.1373 11.5926 16.0549 11.1325 15.8726C10.6724 15.6903 10.2688 15.4255 9.92155 15.0783C9.57433 14.7311 9.30957 14.3404 9.12728 13.9064C8.94499 13.4724 8.85384 13.0123 8.85384 12.5262C8.85384 12.3526 8.86252 12.1833 8.87988 12.0184C8.89724 11.8535 8.93197 11.6929 8.98405 11.5366C9.05349 11.3283 9.04915 11.12 8.97103 10.9116C8.8929 10.7033 8.75836 10.5557 8.56738 10.4689C8.35905 10.3821 8.15506 10.3821 7.9554 10.4689C7.75575 10.5557 7.6212 10.7033 7.55176 10.9116C7.46495 11.172 7.39985 11.4325 7.35645 11.6929C7.31304 11.9533 7.29134 12.2224 7.29134 12.5002C7.29134 13.1946 7.42589 13.8587 7.69499 14.4924C7.96408 15.126 8.34169 15.6859 8.8278 16.172C9.29655 16.6581 9.84777 17.0314 10.4814 17.2918C11.1151 17.5522 11.7705 17.6911 12.4476 17.7085L12.0049 18.1512C11.8486 18.3075 11.7705 18.4897 11.7705 18.6981C11.7705 18.9064 11.8486 19.0887 12.0049 19.245C12.1611 19.4012 12.3434 19.4793 12.5518 19.4793C12.7601 19.4793 12.9424 19.4012 13.0986 19.245L14.7653 17.5783C14.9736 17.37 15.0778 17.1269 15.0778 16.8491C15.0778 16.5713 14.9736 16.3283 14.7653 16.12L13.0986 14.4533C12.9424 14.297 12.7601 14.2189 12.5518 14.2189C12.3434 14.2189 12.1611 14.297 12.0049 14.4533C11.8486 14.6095 11.7705 14.7918 11.7705 15.0002C11.7705 15.2085 11.8486 15.3908 12.0049 15.547L12.5778 16.12ZM12.3955 8.85433C12.899 8.85433 13.3851 8.94548 13.8538 9.12777C14.3226 9.31006 14.7306 9.57482 15.0778 9.92204C15.425 10.2693 15.6898 10.6599 15.8721 11.0939C16.0544 11.5279 16.1455 11.988 16.1455 12.4741C16.1455 12.6477 16.1368 12.817 16.1195 12.9819C16.1021 13.1469 16.0674 13.3075 16.0153 13.4637C15.9459 13.672 15.9502 13.8847 16.0283 14.1017C16.1064 14.3187 16.241 14.4706 16.432 14.5575C16.6403 14.6443 16.8443 14.6443 17.0439 14.5575C17.2436 14.4706 17.3781 14.3231 17.4476 14.1147C17.5344 13.8543 17.5995 13.5896 17.6429 13.3205C17.6863 13.0514 17.708 12.7779 17.708 12.5002C17.708 11.8057 17.5821 11.1417 17.3304 10.508C17.0787 9.8743 16.7011 9.30572 16.1976 8.80225C15.7115 8.31614 15.1516 7.94721 14.5179 7.69548C13.8842 7.44374 13.2288 7.31787 12.5518 7.31787L13.0205 6.84912C13.1594 6.69287 13.2288 6.51058 13.2288 6.30225C13.2288 6.09391 13.1507 5.91162 12.9945 5.75537C12.8382 5.59912 12.6559 5.521 12.4476 5.521C12.2393 5.521 12.057 5.59912 11.9007 5.75537L10.234 7.42204C10.0257 7.63037 9.92155 7.87343 9.92155 8.1512C9.92155 8.42898 10.0257 8.67204 10.234 8.88037L11.9007 10.547C12.057 10.7033 12.2393 10.7814 12.4476 10.7814C12.6559 10.7814 12.8382 10.7033 12.9945 10.547C13.1507 10.3908 13.2288 10.2085 13.2288 10.0002C13.2288 9.79183 13.1507 9.60954 12.9945 9.45329L12.3955 8.85433ZM12.4997 22.9168C11.0587 22.9168 9.70454 22.6434 8.43717 22.0965C7.16981 21.5496 6.06738 20.8075 5.12988 19.87C4.19238 18.9325 3.4502 17.83 2.90332 16.5627C2.35645 15.2953 2.08301 13.9411 2.08301 12.5002C2.08301 11.0592 2.35645 9.70502 2.90332 8.43766C3.4502 7.1703 4.19238 6.06787 5.12988 5.13037C6.06738 4.19287 7.16981 3.45068 8.43717 2.90381C9.70454 2.35693 11.0587 2.0835 12.4997 2.0835C13.9406 2.0835 15.2948 2.35693 16.5622 2.90381C17.8295 3.45068 18.932 4.19287 19.8695 5.13037C20.807 6.06787 21.5492 7.1703 22.096 8.43766C22.6429 9.70502 22.9163 11.0592 22.9163 12.5002C22.9163 13.9411 22.6429 15.2953 22.096 16.5627C21.5492 17.83 20.807 18.9325 19.8695 19.87C18.932 20.8075 17.8295 21.5496 16.5622 22.0965C15.2948 22.6434 13.9406 22.9168 12.4997 22.9168Z" fill="#BBFF55"/>
</svg>
