<svg width="30" height="30" viewBox="0 0 25 25" fill="none" xmlns="http://www.w3.org/2000/svg">
<path d="M8.72363 16.9272L13.984 15.4168C14.3313 15.3127 14.6307 15.1347 14.8825 14.883C15.1342 14.6312 15.3122 14.3318 15.4163 13.9845L16.9268 8.72412C16.9788 8.53315 16.9311 8.36388 16.7835 8.21631C16.636 8.06874 16.4667 8.021 16.2757 8.07308L11.0153 9.5835C10.6681 9.68766 10.3686 9.86561 10.1169 10.1173C9.86513 10.3691 9.68717 10.6686 9.58301 11.0158L8.07259 16.2762C8.02051 16.4672 8.06825 16.6364 8.21582 16.784C8.36339 16.9316 8.53266 16.9793 8.72363 16.9272ZM12.4997 14.0627C12.0656 14.0627 11.6967 13.9108 11.3929 13.6069C11.0891 13.3031 10.9372 12.9342 10.9372 12.5002C10.9372 12.0661 11.0891 11.6972 11.3929 11.3934C11.6967 11.0896 12.0656 10.9377 12.4997 10.9377C12.9337 10.9377 13.3026 11.0896 13.6064 11.3934C13.9103 11.6972 14.0622 12.0661 14.0622 12.5002C14.0622 12.9342 13.9103 13.3031 13.6064 13.6069C13.3026 13.9108 12.9337 14.0627 12.4997 14.0627ZM12.4997 22.9168C11.0587 22.9168 9.70453 22.6434 8.43717 22.0965C7.16981 21.5496 6.06738 20.8075 5.12988 19.87C4.19238 18.9325 3.4502 17.83 2.90332 16.5627C2.35645 15.2953 2.08301 13.9411 2.08301 12.5002C2.08301 11.0592 2.35645 9.70502 2.90332 8.43766C3.4502 7.1703 4.19238 6.06787 5.12988 5.13037C6.06738 4.19287 7.16981 3.45068 8.43717 2.90381C9.70453 2.35693 11.0587 2.0835 12.4997 2.0835C13.9406 2.0835 15.2948 2.35693 16.5622 2.90381C17.8295 3.45068 18.932 4.19287 19.8695 5.13037C20.807 6.06787 21.5492 7.1703 22.096 8.43766C22.6429 9.70502 22.9163 11.0592 22.9163 12.5002C22.9163 13.9411 22.6429 15.2953 22.096 16.5627C21.5492 17.83 20.807 18.9325 19.8695 19.87C18.932 20.8075 17.8295 21.5496 16.5622 22.0965C15.2948 22.6434 13.9406 22.9168 12.4997 22.9168Z" fill="#FFB650"/>
</svg>
